<mxfile host="app.diagrams.net" agent="Mozilla/5.0 (X11; Linux x86_64) AppleWebKit/537.36 (KHTML, like Gecko) Chrome/127.0.0.0 Safari/537.36 OPR/113.0.0.0" version="26.1.1">
  <diagram name="Modified UML" id="wLX-Yra6OyFEx9OE52C7">
    <mxGraphModel dx="1380" dy="822" grid="1" gridSize="10" guides="1" tooltips="1" connect="1" arrows="1" fold="1" page="1" pageScale="1" pageWidth="850" pageHeight="1100" math="0" shadow="0">
      <root>
        <mxCell id="0" />
        <mxCell id="1" parent="0" />
        <mxCell id="_7dUepo7G0sWuXn8-9HU-23" value="&lt;&lt;interface&gt;&gt;&#xa;Movable" style="shape=swimlane;childLayout=stackLayout;startSize=30;horizontal=1;container=1;" vertex="1" parent="1">
          <mxGeometry x="100" y="230" width="200" height="160" as="geometry" />
        </mxCell>
        <mxCell id="_7dUepo7G0sWuXn8-9HU-24" value="moveUp(): void&#xa;moveDown(): void&#xa;moveLeft(): void&#xa;moveRight(): void" style="text;html=1;strokeColor=none;fillColor=none;align=left;verticalAlign=top;spacingTop=5;spacingLeft=5;" vertex="1" parent="_7dUepo7G0sWuXn8-9HU-23">
          <mxGeometry y="30" width="200" height="130" as="geometry" />
        </mxCell>
        <mxCell id="_7dUepo7G0sWuXn8-9HU-25" value="MovableRectangle" style="shape=swimlane;childLayout=stackLayout;startSize=30;horizontal=1;container=1;" vertex="1" parent="1">
          <mxGeometry x="400" y="170" width="480" height="280" as="geometry" />
        </mxCell>
        <mxCell id="_7dUepo7G0sWuXn8-9HU-26" value="&#xa;- x1: int&#xa;- y1: int&#xa;- x2: int&#xa;- y2: int&#xa;- xSpeed: int&#xa;- ySpeed: int" style="text;html=1;strokeColor=none;fillColor=none;align=left;verticalAlign=top;spacingTop=5;spacingLeft=5;" vertex="1" parent="_7dUepo7G0sWuXn8-9HU-25">
          <mxGeometry y="30" width="240" height="250" as="geometry" />
        </mxCell>
        <mxCell id="_7dUepo7G0sWuXn8-9HU-27" value="&#xa;+ moveUp(): void&#xa;+ moveDown(): void&#xa;+ moveLeft(): void&#xa;+ moveRight(): void" style="text;html=1;strokeColor=none;fillColor=none;align=left;verticalAlign=top;spacingTop=5;spacingLeft=5;" vertex="1" parent="_7dUepo7G0sWuXn8-9HU-25">
          <mxGeometry x="240" y="30" width="240" height="250" as="geometry" />
        </mxCell>
        <mxCell id="_7dUepo7G0sWuXn8-9HU-28" style="endArrow=block;endFill=0;dashed=1;html=1;entryX=1;entryY=0.5;entryDx=0;entryDy=0;exitX=0;exitY=0.5;exitDx=0;exitDy=0;jumpSize=6;strokeWidth=2;" edge="1" parent="1" source="_7dUepo7G0sWuXn8-9HU-26" target="_7dUepo7G0sWuXn8-9HU-24">
          <mxGeometry relative="1" as="geometry" />
        </mxCell>
      </root>
    </mxGraphModel>
  </diagram>
</mxfile>
